<svg width="52" height="51" viewBox="0 0 52 51" fill="none" xmlns="http://www.w3.org/2000/svg">
<g clip-path="url(#clip0_3_31)">
<rect y="0.543182" width="52" height="50.0741" rx="6.86792" fill="#FF8400"/>
<path fill-rule="evenodd" clip-rule="evenodd" d="M25.9642 40.9729C21.8673 40.9209 18.4435 39.5954 15.4646 36.9908C11.7464 33.7396 9.97936 29.7303 10.1658 24.9105C10.2465 22.8213 10.6348 20.7418 11.6731 18.898C13.478 15.6937 15.8992 13.0383 19.4384 11.533C23.4392 9.83144 27.484 9.77246 31.5846 11.1938C34.8666 12.3313 37.3846 14.4204 39.2633 17.195C42.955 22.6485 42.7034 29.9111 38.4338 35.0685C35.7657 38.2913 32.3733 40.1807 28.2128 40.823C27.4377 40.9426 26.6411 40.9308 25.9642 40.9729ZM25.9013 38.9481C27.1262 38.8393 28.3596 38.7851 29.5742 38.6079C31.0815 38.3881 31.4583 37.833 31.0785 36.4193C30.4082 33.9255 29.6869 31.4447 28.9802 28.9602C28.6553 27.8174 28.1539 27.5841 27.0264 28.1087C26.03 28.5721 25.0475 29.0673 24.0867 29.5972C21.6016 30.968 19.5828 32.8229 18.0455 35.173C17.6877 35.7205 17.5884 36.1889 18.2476 36.5732C20.6049 37.9475 23.0494 39.0562 25.9013 38.9481ZM12.3966 26.7247C12.2092 28.7048 14.0368 32.3888 15.1729 33.7495C15.6095 34.2722 15.9963 34.3376 16.44 33.7262C16.9246 33.0579 17.4126 32.3732 18.0091 31.8046C19.2886 30.5852 20.5413 29.304 21.9884 28.2977C23.2953 27.3894 24.8266 26.7707 26.3009 26.1137C26.817 25.8838 27.3548 25.7745 27.2817 25.1115C27.1748 24.1411 26.3618 23.285 25.7019 23.4246C24.6327 23.6509 23.5878 24.0258 22.5091 24.1623C19.7024 24.5171 16.8894 24.8635 14.0673 25.0448C11.9653 25.1799 12.4174 25.1941 12.3966 26.7247ZM12.8054 22.109C12.8176 22.8656 13.1573 23.1398 13.7922 23.0532C14.1656 23.0021 14.5373 22.9362 14.9112 22.8844C18.0886 22.4443 21.2671 22.0098 24.4438 21.5637C25.1024 21.4713 25.3379 21.1564 24.9358 20.5497C23.5731 18.4921 22.2041 16.4378 20.8635 14.3668C20.4073 13.6623 19.9223 13.6431 19.2084 14.0254C17.5766 14.8998 16.2493 16.0986 15.0657 17.4689C13.8595 18.865 13.2715 20.5391 12.8054 22.109ZM24.0969 12.1385C23.7685 12.3366 23.3617 12.4772 23.1445 12.7569C23.0338 12.8999 23.199 13.3308 23.3483 13.5661C24.7199 15.7255 26.1036 17.8784 27.5224 20.0083C27.6643 20.2208 28.1355 20.4428 28.3376 20.367C30.7175 19.4726 32.87 18.221 34.5994 16.3589C34.9889 15.9395 34.9847 15.5158 34.48 15.1889C33.6426 14.6465 32.8239 14.0613 31.9335 13.6149C29.5007 12.3958 26.8563 12.2222 24.0969 12.1385ZM39.5594 24.1615C39.3519 21.8964 38.4506 19.7011 37.0265 17.6899C36.6831 17.2048 36.3649 17.2075 35.9756 17.6336C35.6203 18.0224 35.289 18.4627 34.8552 18.747C33.1771 19.8465 31.4494 20.8742 29.7725 21.9756C29.4635 22.1788 29.1097 22.6078 29.123 22.9183C29.1446 23.4111 29.3625 23.9648 29.6772 24.3556C29.9436 24.6859 30.4537 24.9875 30.8762 25.0159C33.3539 25.182 35.839 25.234 38.3174 25.3886C39.3703 25.4543 39.5748 25.3513 39.5594 24.1615ZM31.0406 27.1616C31.9112 30.3223 32.7526 33.378 33.5839 36.3965C33.8285 36.3832 33.8951 36.3928 33.9514 36.3736C34.0395 36.3437 34.1259 36.3026 34.2034 36.252C37.0875 34.3653 38.5496 31.5845 39.3844 28.4195C39.5738 27.7016 39.1031 27.3651 38.4647 27.3181C36.3325 27.1612 34.1975 27.036 32.0615 26.9351C31.7141 26.9187 31.3573 27.087 31.0406 27.1616Z" fill="white"/>
</g>
<defs>
<clipPath id="clip0_3_31">
<rect width="52" height="50.0741" fill="white" transform="translate(0 0.543182)"/>
</clipPath>
</defs>
</svg>
