<svg width="52" height="53" viewBox="0 0 52 53" fill="none" xmlns="http://www.w3.org/2000/svg">
<g clip-path="url(#clip0_3_34)">
<rect y="0.702942" width="52" height="52" rx="6.86792" fill="#FF8400"/>
<path d="M18.6505 26.7029L7.10785 34.2126V19.1933L18.6505 26.7029ZM33.3494 26.7029L44.892 34.2126V19.1933L33.3494 26.7029ZM31.663 27.8034L26.5022 31.1599C26.3501 31.2566 26.175 31.3073 25.9999 31.3073C25.8248 31.3073 25.6497 31.2566 25.4977 31.1599L20.3369 27.8034L7.87275 35.9116L7.14932 36.3812C7.3751 37.6796 8.50863 38.6742 9.87255 38.6742H42.1273C43.4912 38.6742 44.6248 37.6842 44.8506 36.3812L44.1225 35.9116L31.663 27.8034ZM25.9999 29.286L44.1225 17.4943L44.8506 17.0247C44.6248 15.7216 43.4912 14.7317 42.1273 14.7317H9.87255C8.50863 14.7317 7.3751 15.7263 7.14932 17.0247L7.87275 17.4943L25.9999 29.286Z" fill="white"/>
</g>
<defs>
<clipPath id="clip0_3_34">
<rect width="52" height="52" fill="white" transform="translate(0 0.702942)"/>
</clipPath>
</defs>
</svg>
