<svg width="52" height="53" viewBox="0 0 52 53" fill="none" xmlns="http://www.w3.org/2000/svg">
<g clip-path="url(#clip0_3_22)">
<path d="M44.2 0.33403H7.8C3.49218 0.33403 0 3.82621 0 8.13403V44.534C0 48.8419 3.49218 52.334 7.8 52.334H44.2C48.5078 52.334 52 48.8419 52 44.534V8.13403C52 3.82621 48.5078 0.33403 44.2 0.33403Z" fill="#FF8400"/>
<path d="M34.0234 51.0137C35.4453 51.0137 35.2422 52.7403 35.2422 52.7403H16.7578C16.7578 52.7403 16.5547 51.0137 17.9766 51.0137C19.2969 51.0137 19.6016 50.4044 19.6016 49.795L19.5 44.7169C12.2891 46.3419 10.7656 41.8731 10.7656 41.8731C9.54687 38.8262 7.92187 38.1153 7.92187 38.1153C5.48437 36.4903 8.02344 36.4903 8.02344 36.4903C10.6641 36.6934 12.0859 39.1309 12.0859 39.1309C14.3203 43.0919 18.0781 41.9747 19.6016 41.3653C19.8047 39.6387 20.5156 38.5215 21.2266 37.8106C15.4375 37.2012 9.44531 34.9669 9.44531 25.0137C9.44531 22.17 10.4609 19.834 12.0859 18.0059C11.7812 17.3965 10.9687 14.7559 12.3906 11.2012C12.3906 11.2012 14.5234 10.4903 19.5 13.8419C23.7656 12.6231 28.2344 12.6231 32.5 13.8419C37.4766 10.4903 39.6094 11.2012 39.6094 11.2012C41.0312 14.7559 40.2188 17.3965 39.9141 18.0059C41.5391 19.834 42.5547 22.17 42.5547 25.0137C42.5547 34.9669 36.4609 37.2012 30.6719 37.8106C31.6875 38.6231 32.5 40.2481 32.5 42.6856L32.3984 49.795C32.3984 50.4044 32.7031 51.0137 34.0234 51.0137Z" fill="white"/>
</g>
<defs>
<clipPath id="clip0_3_22">
<rect width="52" height="52" fill="white" transform="translate(0 0.33403)"/>
</clipPath>
</defs>
</svg>
