<svg width="464" height="129" viewBox="0 0 464 129" fill="none" xmlns="http://www.w3.org/2000/svg">
<rect x="300" y="28" width="164" height="54.1786" rx="10.25" fill="#FF8400"/>
<path d="M320.302 65.1159H315.669L322.729 44.6658H328.301L335.35 65.1159H330.717L325.595 49.339H325.435L320.302 65.1159ZM320.013 57.0777H330.957V60.4528H320.013V57.0777ZM337.812 65.1159V44.6658H342.065V52.3546H342.195C342.382 51.9419 342.651 51.5225 343.004 51.0964C343.364 50.6637 343.83 50.3043 344.402 50.018C344.981 49.7251 345.7 49.5786 346.559 49.5786C347.677 49.5786 348.709 49.8715 349.654 50.4574C350.6 51.0365 351.355 51.9119 351.921 53.0835C352.487 54.2485 352.77 55.7097 352.77 57.4671C352.77 59.1779 352.494 60.6225 351.941 61.8008C351.395 62.9724 350.65 63.8611 349.704 64.4669C348.766 65.066 347.714 65.3656 346.549 65.3656C345.723 65.3656 345.021 65.2291 344.442 64.9562C343.869 64.6832 343.4 64.3404 343.034 63.9277C342.668 63.5083 342.388 63.0856 342.195 62.6595H342.006V65.1159H337.812ZM341.976 57.4471C341.976 58.3591 342.102 59.1546 342.355 59.8337C342.608 60.5127 342.974 61.0419 343.453 61.4213C343.933 61.7941 344.515 61.9805 345.201 61.9805C345.893 61.9805 346.479 61.7908 346.958 61.4114C347.438 61.0252 347.8 60.4927 348.047 59.8137C348.3 59.128 348.426 58.3392 348.426 57.4471C348.426 56.5618 348.303 55.7829 348.057 55.1106C347.81 54.4382 347.448 53.9123 346.968 53.5329C346.489 53.1534 345.9 52.9637 345.201 52.9637C344.509 52.9637 343.923 53.1468 343.443 53.5129C342.971 53.879 342.608 54.3983 342.355 55.0706C342.102 55.743 341.976 56.5351 341.976 57.4471ZM362.538 65.4155C360.987 65.4155 359.646 65.086 358.514 64.4269C357.389 63.7612 356.52 62.8359 355.908 61.651C355.295 60.4594 354.989 59.0781 354.989 57.5071C354.989 55.9227 355.295 54.5381 355.908 53.3531C356.52 52.1615 357.389 51.2362 358.514 50.5772C359.646 49.9115 360.987 49.5786 362.538 49.5786C364.089 49.5786 365.427 49.9115 366.552 50.5772C367.684 51.2362 368.556 52.1615 369.168 53.3531C369.781 54.5381 370.087 55.9227 370.087 57.5071C370.087 59.0781 369.781 60.4594 369.168 61.651C368.556 62.8359 367.684 63.7612 366.552 64.4269C365.427 65.086 364.089 65.4155 362.538 65.4155ZM362.558 62.1203C363.264 62.1203 363.853 61.9206 364.325 61.5212C364.798 61.1151 365.154 60.5626 365.394 59.8636C365.64 59.1646 365.763 58.3691 365.763 57.4771C365.763 56.5851 365.64 55.7896 365.394 55.0906C365.154 54.3916 364.798 53.8391 364.325 53.433C363.853 53.0269 363.264 52.8239 362.558 52.8239C361.846 52.8239 361.247 53.0269 360.761 53.433C360.281 53.8391 359.919 54.3916 359.672 55.0906C359.433 55.7896 359.313 56.5851 359.313 57.4771C359.313 58.3691 359.433 59.1646 359.672 59.8636C359.919 60.5626 360.281 61.1151 360.761 61.5212C361.247 61.9206 361.846 62.1203 362.558 62.1203ZM382.689 58.5855V49.7784H386.942V65.1159H382.858V62.33H382.699C382.352 63.2287 381.777 63.951 380.971 64.4968C380.172 65.0427 379.197 65.3156 378.045 65.3156C377.02 65.3156 376.118 65.0827 375.339 64.6167C374.56 64.1507 373.951 63.4883 373.512 62.6296C373.079 61.7708 372.86 60.7423 372.853 59.5441V49.7784H377.107V58.7852C377.113 59.6905 377.356 60.4062 377.836 60.9321C378.315 61.4579 378.957 61.7209 379.763 61.7209C380.275 61.7209 380.755 61.6044 381.201 61.3714C381.647 61.1318 382.006 60.7789 382.279 60.313C382.559 59.847 382.695 59.2711 382.689 58.5855ZM398.503 49.7784V52.9737H389.266V49.7784H398.503ZM391.363 46.1037H395.617V60.4028C395.617 60.7956 395.677 61.1018 395.797 61.3215C395.917 61.5345 396.083 61.6843 396.296 61.7708C396.516 61.8574 396.769 61.9006 397.055 61.9006C397.255 61.9006 397.454 61.884 397.654 61.8507C397.854 61.8108 398.007 61.7808 398.114 61.7608L398.783 64.9262C398.57 64.9928 398.27 65.0693 397.884 65.1559C397.498 65.2491 397.028 65.3057 396.476 65.3256C395.451 65.3656 394.552 65.2291 393.78 64.9162C393.014 64.6034 392.419 64.1174 391.992 63.4584C391.566 62.7993 391.357 61.9672 391.363 60.962V46.1037ZM407.862 44.6658H413.194L418.826 58.4057H419.065L424.697 44.6658H430.029V65.1159H425.836V51.8054H425.666L420.373 65.0161H417.518L412.225 51.7555H412.056V65.1159H407.862V44.6658ZM440.502 65.4155C438.924 65.4155 437.566 65.096 436.428 64.4569C435.296 63.8112 434.424 62.8992 433.811 61.7209C433.199 60.536 432.893 59.1347 432.893 57.517C432.893 55.9393 433.199 54.5547 433.811 53.3631C434.424 52.1715 435.286 51.2429 436.398 50.5772C437.516 49.9115 438.827 49.5786 440.332 49.5786C441.344 49.5786 442.286 49.7417 443.158 50.0679C444.036 50.3875 444.802 50.8701 445.454 51.5158C446.113 52.1615 446.626 52.9737 446.992 53.9523C447.358 54.9242 447.541 56.0625 447.541 57.3673V58.5356H434.59V55.8994H443.537C443.537 55.287 443.404 54.7444 443.138 54.2718C442.871 53.7991 442.502 53.4297 442.029 53.1634C441.563 52.8905 441.021 52.754 440.402 52.754C439.756 52.754 439.184 52.9038 438.684 53.2033C438.192 53.4963 437.806 53.8923 437.526 54.3916C437.246 54.8842 437.103 55.4334 437.097 56.0392V58.5455C437.097 59.3044 437.236 59.9601 437.516 60.5127C437.802 61.0652 438.205 61.4912 438.724 61.7908C439.243 62.0904 439.859 62.2401 440.571 62.2401C441.044 62.2401 441.477 62.1736 441.87 62.0404C442.262 61.9073 442.599 61.7076 442.878 61.4413C443.158 61.175 443.371 60.8488 443.517 60.4627L447.451 60.7224C447.252 61.6676 446.842 62.4931 446.223 63.1987C445.611 63.8977 444.819 64.4436 443.847 64.8363C442.881 65.2224 441.766 65.4155 440.502 65.4155Z" fill="white"/>
<path d="M11.5529 128.574C12.2186 129.067 13.158 128.928 13.6511 128.262L21.6866 117.414C22.1797 116.748 22.0398 115.809 21.3741 115.316C20.7084 114.823 19.7691 114.962 19.276 115.628L12.1332 125.271L2.49054 118.128C1.82486 117.635 0.885469 117.775 0.392366 118.441C-0.100736 119.106 0.0391731 120.046 0.704862 120.539L11.5529 128.574ZM96.9457 2.36901L96.8357 0.873045L96.9457 2.36901ZM13.9294 127.148C13.5381 124.521 13.2127 121.705 12.9717 118.736L9.98156 118.979C10.2277 122.012 10.5606 124.894 10.9621 127.59L13.9294 127.148ZM12.5878 101.748C12.7735 96.2883 13.2615 90.6042 14.1268 84.8446L11.1601 84.3989C10.2765 90.2804 9.77886 96.0796 9.58955 101.646L12.5878 101.748ZM17.7039 68.2642C19.2499 62.8736 21.1864 57.5459 23.5732 52.4005L20.8518 51.1381C18.3933 56.438 16.4045 61.9128 14.8201 67.4372L17.7039 68.2642ZM32.0164 37.809C35.2367 33.2988 38.9322 29.0684 43.1575 25.2237L41.1385 23.0048C36.7461 27.0016 32.9109 31.3936 29.5749 36.0656L32.0164 37.809ZM56.748 15.3627C61.4084 12.7066 66.5284 10.4243 72.1485 8.59173L71.2185 5.73953C65.4097 7.63364 60.1032 9.99749 55.2625 12.7562L56.748 15.3627ZM88.6108 4.78583C91.3318 4.38775 94.1458 4.07893 97.0557 3.86497L96.8357 0.873045C93.8563 1.09212 90.9708 1.40863 88.1765 1.81743L88.6108 4.78583ZM97.0557 3.86497C99.8397 3.66026 102.514 3.54382 105.081 3.51024L105.041 0.510501C102.411 0.544901 99.6768 0.664146 96.8357 0.873045L97.0557 3.86497ZM120.944 4.49978C126.769 5.37459 131.815 6.79343 136.153 8.63709L137.326 5.87613C132.727 3.92159 127.433 2.44067 121.389 1.53305L120.944 4.49978ZM149.077 17.1414C152.914 20.977 155.555 25.4099 157.172 30.1559L160.012 29.1883C158.254 24.0287 155.375 19.1953 151.198 15.0197L149.077 17.1414ZM159.092 45.5127C158.769 50.6832 157.563 55.8714 155.642 60.7644L158.434 61.861C160.461 56.6991 161.742 51.2047 162.086 45.6995L159.092 45.5127ZM147.825 74.3334C144.43 78.561 140.448 82.0522 136.109 84.455L137.563 87.0794C142.292 84.4604 146.563 80.6957 150.164 76.212L147.825 74.3334ZM121.423 88.0261C118.976 87.8886 116.482 87.3845 113.962 86.4607L112.929 89.2773C115.722 90.3013 118.508 90.8671 121.255 91.0214L121.423 88.0261ZM113.962 86.4607C111.326 85.494 109.242 84.2229 107.648 82.7295L105.597 84.9191C107.528 86.7276 109.974 88.1937 112.929 89.2773L113.962 86.4607ZM103.503 69.4223C104.066 65.0977 105.93 60.2568 109.023 55.2237L106.467 53.6529C103.221 58.936 101.161 64.1785 100.528 69.0344L103.503 69.4223ZM118.691 43.0307C122.135 39.5027 126.107 36.041 130.558 32.7611L128.778 30.3461C124.204 33.7173 120.107 37.285 116.544 40.935L118.691 43.0307ZM143.835 24.3573C148.307 21.9386 153.086 19.7277 158.139 17.7943L157.067 14.9924C151.89 16.9729 146.993 19.2384 142.408 21.7185L143.835 24.3573ZM173.17 13.1163C178.149 11.9066 183.325 10.9739 188.675 10.3684L188.337 7.38743C182.861 8.00733 177.561 8.96232 172.462 10.2011L173.17 13.1163ZM204.416 9.57227C209.53 9.6297 214.769 9.9935 220.116 10.701L220.51 7.7269C215.043 7.00351 209.683 6.63124 204.449 6.57246L204.416 9.57227ZM235.578 13.6664C240.538 14.9135 245.572 16.4651 250.669 18.3486L251.709 15.5346C246.512 13.6141 241.375 12.0305 236.309 10.7569L235.578 13.6664ZM265.153 24.5403C267.501 25.6819 269.86 26.8964 272.228 28.1863L273.663 25.5517C271.255 24.24 268.855 23.0043 266.464 21.8422L265.153 24.5403Z" fill="#FF8400"/>
</svg>
