<svg width="146" height="54" viewBox="0 0 146 54" fill="none" xmlns="http://www.w3.org/2000/svg">
<rect width="146" height="54" rx="10.25" fill="#FF8400"/>
<path d="M17.7774 37.1159V16.6658H25.8456C27.3967 16.6658 28.7181 16.9621 29.8098 17.5545C30.9016 18.1403 31.7337 18.9558 32.3062 20.0009C32.8853 21.0394 33.1749 22.2377 33.1749 23.5957C33.1749 24.9537 32.882 26.152 32.2962 27.1904C31.7104 28.2289 30.8616 29.0377 29.7499 29.6169C28.6449 30.196 27.3068 30.4856 25.7358 30.4856H20.5933V27.0207H25.0368C25.8689 27.0207 26.5546 26.8776 27.0938 26.5913C27.6397 26.2984 28.0457 25.8957 28.312 25.3831C28.5849 24.8638 28.7214 24.268 28.7214 23.5957C28.7214 22.9167 28.5849 22.3242 28.312 21.8183C28.0457 21.3057 27.6397 20.9096 27.0938 20.63C26.5479 20.3438 25.8556 20.2007 25.0168 20.2007H22.1011V37.1159H17.7774ZM35.9034 37.1159V21.7784H40.0274V24.4544H40.1872C40.4667 23.5025 40.9361 22.7835 41.5951 22.2976C42.2541 21.805 43.013 21.5587 43.8718 21.5587C44.0848 21.5587 44.3145 21.572 44.5608 21.5986C44.8071 21.6252 45.0234 21.6619 45.2098 21.7085V25.4829C45.0101 25.423 44.7338 25.3698 44.381 25.3232C44.0282 25.2766 43.7053 25.2533 43.4124 25.2533C42.7867 25.2533 42.2275 25.3897 41.7349 25.6627C41.2489 25.929 40.8628 26.3017 40.5766 26.781C40.297 27.2603 40.1572 27.8129 40.1572 28.4386V37.1159H35.9034ZM53.625 37.4155C52.0739 37.4155 50.7326 37.086 49.6009 36.4269C48.4759 35.7612 47.6071 34.8359 46.9947 33.651C46.3823 32.4594 46.076 31.0781 46.076 29.5071C46.076 27.9227 46.3823 26.5381 46.9947 25.3531C47.6071 24.1615 48.4759 23.2362 49.6009 22.5772C50.7326 21.9115 52.0739 21.5786 53.625 21.5786C55.1761 21.5786 56.5141 21.9115 57.6391 22.5772C58.7708 23.2362 59.6429 24.1615 60.2553 25.3531C60.8678 26.5381 61.174 27.9227 61.174 29.5071C61.174 31.0781 60.8678 32.4594 60.2553 33.651C59.6429 34.8359 58.7708 35.7612 57.6391 36.4269C56.5141 37.086 55.1761 37.4155 53.625 37.4155ZM53.645 34.1203C54.3506 34.1203 54.9398 33.9206 55.4124 33.5212C55.885 33.1151 56.2412 32.5626 56.4808 31.8636C56.7271 31.1646 56.8503 30.3691 56.8503 29.4771C56.8503 28.5851 56.7271 27.7896 56.4808 27.0906C56.2412 26.3916 55.885 25.8391 55.4124 25.433C54.9398 25.0269 54.3506 24.8239 53.645 24.8239C52.9327 24.8239 52.3336 25.0269 51.8476 25.433C51.3683 25.8391 51.0055 26.3916 50.7592 27.0906C50.5195 27.7896 50.3997 28.5851 50.3997 29.4771C50.3997 30.3691 50.5195 31.1646 50.7592 31.8636C51.0055 32.5626 51.3683 33.1151 51.8476 33.5212C52.3336 33.9206 52.9327 34.1203 53.645 34.1203ZM63.9399 21.7784H68.1937V37.8748C68.1937 39.0598 67.9607 40.0184 67.4947 40.7506C67.0288 41.4829 66.3597 42.0188 65.4877 42.3583C64.6223 42.6978 63.5871 42.8675 62.3822 42.8675C62.2358 42.8675 62.096 42.8642 61.9628 42.8575C61.823 42.8575 61.6766 42.8542 61.5235 42.8476V39.5224C61.6366 39.5291 61.7365 39.5324 61.823 39.5324C61.9029 39.5391 61.9895 39.5424 62.0826 39.5424C62.7683 39.5424 63.2476 39.3959 63.5205 39.103C63.8001 38.8168 63.9399 38.3841 63.9399 37.8049V21.7784ZM66.0568 19.8012C65.4311 19.8012 64.8919 19.5915 64.4392 19.1722C63.9865 18.7461 63.7602 18.2369 63.7602 17.6444C63.7602 17.0586 63.9865 16.556 64.4392 16.1366C64.8919 15.7106 65.4311 15.4975 66.0568 15.4975C66.6959 15.4975 67.2384 15.7106 67.6845 16.1366C68.1371 16.556 68.3635 17.0586 68.3635 17.6444C68.3635 18.2369 68.1371 18.7461 67.6845 19.1722C67.2384 19.5915 66.6959 19.8012 66.0568 19.8012ZM78.591 37.4155C77.0133 37.4155 75.6553 37.096 74.517 36.4569C73.3853 35.8112 72.5132 34.8992 71.9008 33.7209C71.2884 32.536 70.9821 31.1347 70.9821 29.517C70.9821 27.9393 71.2884 26.5547 71.9008 25.3631C72.5132 24.1715 73.3753 23.2429 74.487 22.5772C75.6054 21.9115 76.9168 21.5786 78.4213 21.5786C79.4331 21.5786 80.3751 21.7417 81.2471 22.0679C82.1259 22.3875 82.8914 22.8701 83.5438 23.5158C84.2028 24.1615 84.7154 24.9737 85.0815 25.9523C85.4477 26.9242 85.6307 28.0625 85.6307 29.3673V30.5356H72.6797V27.8994H81.6266C81.6266 27.287 81.4934 26.7444 81.2272 26.2718C80.9609 25.7991 80.5914 25.4297 80.1188 25.1634C79.6528 24.8905 79.1103 24.754 78.4912 24.754C77.8454 24.754 77.273 24.9038 76.7737 25.2033C76.2811 25.4963 75.895 25.8923 75.6154 26.3916C75.3358 26.8842 75.1927 27.4334 75.186 28.0392V30.5455C75.186 31.3044 75.3258 31.9601 75.6054 32.5127C75.8916 33.0652 76.2944 33.4912 76.8136 33.7908C77.3329 34.0904 77.9486 34.2401 78.6609 34.2401C79.1336 34.2401 79.5663 34.1736 79.959 34.0404C80.3518 33.9073 80.688 33.7076 80.9676 33.4413C81.2471 33.175 81.4602 32.8488 81.6066 32.4627L85.5409 32.7224C85.3412 33.6676 84.9318 34.4931 84.3127 35.1987C83.7002 35.8977 82.908 36.4436 81.9361 36.8363C80.9709 37.2224 79.8558 37.4155 78.591 37.4155ZM95.3366 37.4155C93.7655 37.4155 92.4142 37.0827 91.2825 36.417C90.1575 35.7446 89.2921 34.8126 88.6863 33.621C88.0871 32.4295 87.7876 31.0581 87.7876 29.5071C87.7876 27.936 88.0905 26.558 88.6963 25.3731C89.3087 24.1815 90.1774 23.2529 91.3024 22.5872C92.4275 21.9148 93.7655 21.5786 95.3166 21.5786C96.6546 21.5786 97.8262 21.8216 98.8314 22.3076C99.8366 22.7935 100.632 23.4759 101.218 24.3546C101.804 25.2333 102.127 26.2651 102.187 27.4501H98.1724C98.0592 26.6845 97.7597 26.0687 97.2737 25.6028C96.7944 25.1301 96.1653 24.8938 95.3865 24.8938C94.7274 24.8938 94.1516 25.0735 93.659 25.433C93.173 25.7858 92.7936 26.3017 92.5207 26.9807C92.2477 27.6598 92.1113 28.4819 92.1113 29.4471C92.1113 30.4257 92.2444 31.2578 92.5107 31.9435C92.7836 32.6292 93.1664 33.1517 93.659 33.5112C94.1516 33.8707 94.7274 34.0504 95.3865 34.0504C95.8724 34.0504 96.3085 33.9506 96.6946 33.7509C97.0873 33.5511 97.4102 33.2616 97.6632 32.8821C97.9228 32.496 98.0925 32.0334 98.1724 31.4942H102.187C102.12 32.6658 101.8 33.6976 101.228 34.5896C100.662 35.475 99.8799 36.1673 98.8814 36.6666C97.8828 37.1659 96.7012 37.4155 95.3366 37.4155ZM113.068 21.7784V24.9737H103.832V21.7784H113.068ZM105.929 18.1037H110.182V32.4028C110.182 32.7956 110.242 33.1018 110.362 33.3215C110.482 33.5345 110.648 33.6843 110.861 33.7708C111.081 33.8574 111.334 33.9006 111.62 33.9006C111.82 33.9006 112.02 33.884 112.219 33.8507C112.419 33.8108 112.572 33.7808 112.679 33.7608L113.348 36.9262C113.135 36.9928 112.835 37.0693 112.449 37.1559C112.063 37.2491 111.594 37.3057 111.041 37.3256C110.016 37.3656 109.117 37.2291 108.345 36.9162C107.579 36.6034 106.984 36.1174 106.558 35.4584C106.132 34.7993 105.922 33.9672 105.929 32.962V18.1037ZM128.408 26.152L124.514 26.3916C124.447 26.0588 124.304 25.7592 124.085 25.4929C123.865 25.22 123.575 25.0036 123.216 24.8439C122.863 24.6774 122.44 24.5942 121.948 24.5942C121.289 24.5942 120.733 24.734 120.28 25.0136C119.827 25.2866 119.601 25.6527 119.601 26.112C119.601 26.4781 119.748 26.7877 120.04 27.0407C120.333 27.2936 120.836 27.4967 121.548 27.6498L124.324 28.209C125.815 28.5152 126.927 29.0078 127.659 29.6868C128.392 30.3658 128.758 31.2578 128.758 32.3629C128.758 33.3681 128.461 34.2501 127.869 35.009C127.283 35.7679 126.478 36.3604 125.453 36.7864C124.434 37.2058 123.259 37.4155 121.928 37.4155C119.897 37.4155 118.28 36.9928 117.075 36.1474C115.877 35.2953 115.174 34.137 114.968 32.6724L119.152 32.4528C119.278 33.0718 119.584 33.5445 120.07 33.8707C120.556 34.1902 121.179 34.35 121.938 34.35C122.683 34.35 123.282 34.2069 123.735 33.9206C124.194 33.6277 124.427 33.2516 124.434 32.7923C124.427 32.4062 124.264 32.0899 123.945 31.8436C123.625 31.5907 123.133 31.3976 122.467 31.2645L119.811 30.7353C118.313 30.4357 117.198 29.9165 116.466 29.1775C115.74 28.4386 115.377 27.4967 115.377 26.3517C115.377 25.3664 115.644 24.5177 116.176 23.8054C116.715 23.0931 117.471 22.5439 118.443 22.1578C119.421 21.7717 120.566 21.5786 121.878 21.5786C123.815 21.5786 125.339 21.988 126.451 22.8068C127.569 23.6257 128.222 24.7407 128.408 26.152Z" fill="white"/>
</svg>
