<svg width="150" height="68" viewBox="0 0 150 68" fill="none" xmlns="http://www.w3.org/2000/svg">
<path d="M37.7861 44V25.7426H40.8762V33.6806H49.6647V25.7426H52.7549V44H49.6647V36.062H40.8762V44H37.7861ZM63.1394 44.2835C60.7958 44.2835 58.9814 43.707 57.6962 42.5541C56.411 41.4012 55.7684 39.6341 55.7684 37.2527C55.7684 35.0981 56.3165 33.3971 57.4127 32.1497C58.5089 30.9023 60.1721 30.2786 62.4023 30.2786C64.4435 30.2786 65.9744 30.8172 66.995 31.8945C68.0345 32.9529 68.5542 34.3232 68.5542 36.0053V38.5001H58.7168C58.868 39.8042 59.3405 40.7019 60.1343 41.1933C60.9281 41.6847 62.1377 41.9304 63.7631 41.9304C64.4435 41.9304 65.1428 41.8643 65.861 41.732C66.5792 41.5997 67.2029 41.4296 67.7321 41.2217V43.4897C67.1273 43.7543 66.428 43.9527 65.6342 44.0851C64.8593 44.2174 64.0277 44.2835 63.1394 44.2835ZM58.7168 36.4872H65.8326V35.5517C65.8326 34.6256 65.5775 33.9074 65.0672 33.3971C64.5569 32.8679 63.6969 32.6033 62.4873 32.6033C61.0509 32.6033 60.0587 32.9151 59.5106 33.5388C58.9814 34.1625 58.7168 35.1453 58.7168 36.4872ZM74.9077 44.2835C73.8115 44.2835 72.9799 44.0189 72.4129 43.4897C71.8459 42.9416 71.5624 42.0438 71.5624 40.7964V24.8921H74.6526V40.5129C74.6526 41.0421 74.7471 41.4012 74.9361 41.5902C75.1251 41.7792 75.4086 41.8737 75.7866 41.8737C76.2402 41.8737 76.6749 41.817 77.0907 41.7036V43.9433C76.7316 44.0756 76.3819 44.1607 76.0417 44.1985C75.7204 44.2552 75.3424 44.2835 74.9077 44.2835ZM82.1336 44.2835C81.0374 44.2835 80.2058 44.0189 79.6388 43.4897C79.0718 42.9416 78.7883 42.0438 78.7883 40.7964V24.8921H81.8785V40.5129C81.8785 41.0421 81.973 41.4012 82.162 41.5902C82.351 41.7792 82.6345 41.8737 83.0125 41.8737C83.4661 41.8737 83.9008 41.817 84.3166 41.7036V43.9433C83.9575 44.0756 83.6078 44.1607 83.2676 44.1985C82.9463 44.2552 82.5683 44.2835 82.1336 44.2835ZM93.1695 44.2835C90.7503 44.2835 88.9737 43.6787 87.8397 42.4691C86.7246 41.2595 86.1671 39.5301 86.1671 37.281C86.1671 35.0319 86.7341 33.3026 87.8681 32.093C89.0021 30.8834 90.7692 30.2786 93.1695 30.2786C95.5887 30.2786 97.3653 30.8834 98.4993 32.093C99.6333 33.3026 100.2 35.0319 100.2 37.281C100.2 39.5301 99.6333 41.2595 98.4993 42.4691C97.3842 43.6787 95.6076 44.2835 93.1695 44.2835ZM93.1695 41.6753C94.587 41.6753 95.5887 41.3351 96.1746 40.6547C96.7794 39.9554 97.0818 38.8308 97.0818 37.281C97.0818 35.7312 96.7794 34.6161 96.1746 33.9357C95.5887 33.2553 94.587 32.9151 93.1695 32.9151C91.7709 32.9151 90.7692 33.2553 90.1644 33.9357C89.5785 34.6161 89.2856 35.7312 89.2856 37.281C89.2856 38.8308 89.5785 39.9554 90.1644 40.6547C90.7692 41.3351 91.7709 41.6753 93.1695 41.6753ZM109.457 39.4356L109.287 30.3069V25.7426H112.377V30.3069L112.207 39.4356H109.457ZM109.174 44V41.6753H112.462V44H109.174Z" fill="white"/>
<path d="M143 7H7V61H143V7Z" stroke="#FF8400" stroke-width="2" stroke-linecap="round" stroke-linejoin="round" stroke-dasharray="4 8 12 16"/>
<rect width="14" height="14" rx="2" fill="#FF8400"/>
<rect x="3" y="3" width="8" height="8" rx="2" fill="white"/>
<rect y="54" width="14" height="14" rx="2" fill="#FF8400"/>
<rect x="3" y="57" width="8" height="8" rx="2" fill="white"/>
<rect x="136" width="14" height="14" rx="2" fill="#FF8400"/>
<rect x="136" y="54" width="14" height="14" rx="2" fill="#FF8400"/>
<rect x="139" y="3" width="8" height="8" rx="2" fill="white"/>
<rect x="139" y="57" width="8" height="8" rx="2" fill="white"/>
</svg>
