<svg width="122" height="54" viewBox="0 0 122 54" fill="none" xmlns="http://www.w3.org/2000/svg">
<rect width="122" height="54" rx="10.25" fill="#FF8400"/>
<path d="M36.8712 22.5472C36.7913 21.7417 36.4485 21.116 35.8427 20.67C35.2369 20.224 34.4148 20.0009 33.3763 20.0009C32.6707 20.0009 32.0749 20.1008 31.5889 20.3005C31.103 20.4936 30.7302 20.7632 30.4705 21.1093C30.2176 21.4555 30.0911 21.8483 30.0911 22.2876C30.0778 22.6537 30.1543 22.9733 30.3208 23.2462C30.4938 23.5191 30.7302 23.7555 31.0297 23.9552C31.3293 24.1482 31.6754 24.318 32.0682 24.4644C32.461 24.6042 32.8804 24.724 33.3264 24.8239L35.1637 25.2633C36.0557 25.463 36.8745 25.7292 37.6201 26.0621C38.3657 26.3949 39.0114 26.8043 39.5573 27.2903C40.1031 27.7763 40.5258 28.3487 40.8254 29.0078C41.1316 29.6668 41.2881 30.4224 41.2947 31.2745C41.2881 32.526 40.9685 33.6111 40.3361 34.5297C39.7104 35.4417 38.805 36.1507 37.6201 36.6566C36.4418 37.1559 35.0206 37.4055 33.3563 37.4055C31.7054 37.4055 30.2675 37.1525 29.0426 36.6466C27.8244 36.1407 26.8725 35.3918 26.1868 34.3999C25.5078 33.4014 25.1517 32.1665 25.1184 30.6953H29.3023C29.3488 31.381 29.5452 31.9535 29.8914 32.4128C30.2442 32.8655 30.7135 33.2083 31.2993 33.4413C31.8918 33.6676 32.5608 33.7808 33.3064 33.7808C34.0387 33.7808 34.6744 33.6743 35.2136 33.4613C35.7595 33.2483 36.1822 32.952 36.4818 32.5726C36.7813 32.1931 36.9311 31.7571 36.9311 31.2645C36.9311 30.8052 36.7946 30.4191 36.5217 30.1062C36.2554 29.7933 35.8627 29.527 35.3434 29.3073C34.8308 29.0877 34.2018 28.888 33.4562 28.7082L31.2294 28.149C29.5053 27.7297 28.1439 27.0739 27.1454 26.1819C26.1469 25.2899 25.6509 24.0883 25.6576 22.5772C25.6509 21.339 25.9804 20.2572 26.6461 19.3319C27.3185 18.4066 28.2405 17.6843 29.4121 17.1651C30.5837 16.6459 31.9151 16.3862 33.4063 16.3862C34.924 16.3862 36.2488 16.6459 37.3804 17.1651C38.5188 17.6843 39.4042 18.4066 40.0366 19.3319C40.669 20.2572 40.9952 21.329 41.0151 22.5472H36.8712ZM47.9775 32.7024L47.9874 27.5998H48.6065L53.5194 21.7784H58.4022L51.8019 29.4871H50.7933L47.9775 32.7024ZM44.1231 37.1159V16.6658H48.3769V37.1159H44.1231ZM53.7091 37.1159L49.1957 30.4357L52.0315 27.4301L58.6918 37.1159H53.7091ZM60.4892 37.1159V21.7784H64.743V37.1159H60.4892ZM62.626 19.8012C61.9936 19.8012 61.4511 19.5915 60.9984 19.1722C60.5524 18.7461 60.3294 18.2369 60.3294 17.6444C60.3294 17.0586 60.5524 16.556 60.9984 16.1366C61.4511 15.7106 61.9936 15.4975 62.626 15.4975C63.2585 15.4975 63.7977 15.7106 64.2437 16.1366C64.6964 16.556 64.9227 17.0586 64.9227 17.6444C64.9227 18.2369 64.6964 18.7461 64.2437 19.1722C63.7977 19.5915 63.2585 19.8012 62.626 19.8012ZM72.4043 16.6658V37.1159H68.1505V16.6658H72.4043ZM80.0656 16.6658V37.1159H75.8118V16.6658H80.0656ZM96.2344 26.152L92.3401 26.3916C92.2736 26.0588 92.1304 25.7592 91.9107 25.4929C91.6911 25.22 91.4015 25.0036 91.042 24.8439C90.6892 24.6774 90.2665 24.5942 89.7739 24.5942C89.1148 24.5942 88.559 24.734 88.1063 25.0136C87.6536 25.2866 87.4273 25.6527 87.4273 26.112C87.4273 26.4781 87.5738 26.7877 87.8667 27.0407C88.1596 27.2936 88.6622 27.4967 89.3745 27.6498L92.1504 28.209C93.6416 28.5152 94.7533 29.0078 95.4855 29.6868C96.2178 30.3658 96.5839 31.2578 96.5839 32.3629C96.5839 33.3681 96.2877 34.2501 95.6952 35.009C95.1094 35.7679 94.3039 36.3604 93.2788 36.7864C92.2602 37.2058 91.0853 37.4155 89.7539 37.4155C87.7235 37.4155 86.1059 36.9928 84.901 36.1474C83.7027 35.2953 83.0004 34.137 82.7941 32.6724L86.978 32.4528C87.1044 33.0718 87.4107 33.5445 87.8966 33.8707C88.3826 34.1902 89.005 34.35 89.7639 34.35C90.5095 34.35 91.1086 34.2069 91.5613 33.9206C92.0206 33.6277 92.2536 33.2516 92.2602 32.7923C92.2536 32.4062 92.0905 32.0899 91.771 31.8436C91.4514 31.5907 90.9588 31.3976 90.2931 31.2645L87.637 30.7353C86.1392 30.4357 85.0241 29.9165 84.2919 29.1775C83.5663 28.4386 83.2035 27.4967 83.2035 26.3517C83.2035 25.3664 83.4698 24.5177 84.0023 23.8054C84.5415 23.0931 85.2971 22.5439 86.269 22.1578C87.2476 21.7717 88.3926 21.5786 89.704 21.5786C91.6411 21.5786 93.1656 21.988 94.2773 22.8068C95.3957 23.6257 96.048 24.7407 96.2344 26.152Z" fill="white"/>
</svg>
