<svg width="105" height="183" viewBox="0 0 105 183" fill="none" xmlns="http://www.w3.org/2000/svg">
<g clip-path="url(#clip0_21_293)">
<path fill-rule="evenodd" clip-rule="evenodd" d="M37.2419 96.5802C37.2419 96.5802 32.853 99.1236 40.3686 99.9828C49.4762 101.019 54.1282 100.87 64.1615 98.9793C64.1615 98.9793 66.803 100.626 70.4903 102.051C47.992 111.653 19.5729 101.496 37.2419 96.5802ZM34.4916 84.0511C34.4916 84.0511 29.568 87.6806 37.0903 88.4553C46.8194 89.456 54.499 89.5376 67.7963 86.9895C67.7963 86.9895 69.6323 88.8455 72.5217 89.8595C45.3237 97.7821 15.0324 90.4832 34.4916 84.0511Z" fill="#3174B9"/>
<path fill-rule="evenodd" clip-rule="evenodd" d="M57.6658 62.7953C63.212 69.1533 56.2121 74.8715 56.2121 74.8715C56.2121 74.8715 70.2882 67.6362 63.8231 58.5724C57.7869 50.1238 53.1568 45.9266 78.2195 31.4522C78.2195 31.4522 38.8777 41.2338 57.6658 62.7953Z" fill="#CA3132"/>
<path fill-rule="evenodd" clip-rule="evenodd" d="M87.4204 105.848C87.4204 105.848 90.6692 108.516 83.8418 110.579C70.8591 114.495 29.7967 115.676 18.3907 110.735C14.2935 108.957 21.9807 106.494 24.3992 105.973C26.9216 105.43 28.361 105.529 28.361 105.529C23.8015 102.332 -1.1105 111.809 15.7091 114.528C61.5732 121.935 99.3154 111.194 87.4204 105.848ZM39.3533 71.0683C39.3533 71.0683 18.4689 76.0098 31.9587 77.8061C37.6564 78.5646 49.0062 78.3899 59.5866 77.5061C68.2309 76.7836 76.9077 75.238 76.9077 75.238C76.9077 75.238 73.8619 76.5396 71.6551 78.0377C50.4437 83.5945 9.47375 81.0064 21.2696 75.3263C31.2428 70.5214 39.3533 71.0683 39.3533 71.0683ZM76.8209 91.9234C98.3812 80.7681 88.4128 70.0458 81.4529 71.4907C79.7513 71.8449 78.9877 72.1506 78.9877 72.1506C78.9877 72.1506 79.6226 71.1613 80.8294 70.736C94.5957 65.9178 105.181 84.9502 76.391 92.4874C76.39 92.4874 76.7218 92.1893 76.8209 91.9234Z" fill="#3174B9"/>
<path fill-rule="evenodd" clip-rule="evenodd" d="M63.823 8.07358C63.823 8.07358 75.7609 19.9703 52.4972 38.2584C33.8406 52.934 48.2436 61.299 52.4914 70.8603C41.5993 61.075 33.6099 52.4593 38.9692 44.4427C46.8375 32.675 68.64 26.9683 63.823 8.07358Z" fill="#CA3132"/>
<path fill-rule="evenodd" clip-rule="evenodd" d="M41.4745 122.161C62.1663 123.479 93.9477 121.429 94.7017 111.676C94.7017 111.676 93.2546 115.373 77.599 118.306C59.9357 121.617 38.1466 121.232 25.2278 119.108C25.2278 119.108 27.875 121.29 41.4745 122.161Z" fill="#3174B9"/>
<path fill-rule="evenodd" clip-rule="evenodd" d="M93.7455 139.651H93.1163V139.3H94.8141V139.651H94.1849V141.405H93.7455V139.651ZM97.1334 139.738H97.1258L96.5004 141.405H96.2135L95.5919 139.738H95.5843V141.405H95.1668V139.299H95.7798L96.3555 140.788L96.9313 139.299H97.5385V141.405H97.1344L97.1334 139.738ZM38.0836 159.422C36.1322 161.106 34.0693 162.054 32.2171 162.054C29.5784 162.054 28.1466 160.475 28.1466 157.949C28.1466 155.213 29.6795 153.212 35.8148 153.212H38.0826L38.0836 159.422ZM43.4696 165.473V146.74C43.4696 141.952 40.728 138.793 34.1189 138.793C30.2629 138.793 26.8826 139.741 24.1343 140.95L24.9255 144.268C27.0904 143.476 29.8892 142.742 32.6365 142.742C36.4439 142.742 38.0826 144.268 38.0826 147.426V149.795H36.1799C26.9312 149.795 22.7577 153.369 22.7577 158.741C22.7577 163.37 25.5079 166.002 30.6852 166.002C34.0131 166.002 36.4992 164.634 38.8205 162.632L39.2428 165.473H43.4696ZM61.4455 165.473H54.7297L46.6431 139.269H52.5095L57.5285 155.372L58.6458 160.21C61.1777 153.212 62.9746 146.108 63.8735 139.269H69.578C68.0508 147.897 65.2996 157.37 61.4455 165.473ZM87.2193 159.422C85.2622 161.106 83.1993 162.054 81.3509 162.054C78.7123 162.054 77.2823 160.475 77.2823 157.949C77.2823 155.213 78.8162 153.212 84.9477 153.212H87.2193V159.422ZM92.6072 165.473V146.74C92.6072 141.952 89.857 138.793 83.2546 138.793C79.3948 138.793 76.0154 139.741 73.2672 140.95L74.0584 144.268C76.2233 143.476 79.0278 142.742 81.7761 142.742C85.5778 142.742 87.2184 144.268 87.2184 147.426V149.795H85.3156C76.066 149.795 71.8954 153.369 71.8954 158.741C71.8954 163.37 74.6399 166.002 79.8181 166.002C83.1488 166.002 85.6312 164.634 87.9581 162.632L88.3823 165.473H92.6072ZM16.8522 169.926C15.3174 172.16 12.8351 173.929 10.1211 174.926L7.46143 171.807C9.52909 170.75 11.3003 169.044 12.1249 167.457C12.8351 166.042 13.1315 164.223 13.1315 159.869V129.949H18.856V159.456C18.856 165.28 18.3889 167.633 16.8522 169.926Z" fill="#CA3132"/>
</g>
<defs>
<clipPath id="clip0_21_293">
<rect width="105" height="183" fill="white"/>
</clipPath>
</defs>
</svg>
