<svg width="51" height="51" viewBox="0 0 51 51" fill="none" xmlns="http://www.w3.org/2000/svg">
<g clip-path="url(#clip0_3_20)">
<rect x="6.69379" y="9.62935" width="37.9422" height="35.4127" fill="white"/>
<path fill-rule="evenodd" clip-rule="evenodd" d="M44.7918 0.143799H7.17039C3.60762 0.143799 0.686279 3.06546 0.686279 6.62781V44.2493C0.686279 47.8117 3.60762 50.7334 7.17039 50.7334H44.7917C48.3549 50.7334 51.2759 47.8117 51.2759 44.2494V6.62781C51.2759 3.06546 48.3549 0.143799 44.7918 0.143799ZM18.0765 24.5756V40.1939H11.2258V20.485H18.0765V24.5756ZM14.6374 17.5475C12.7316 17.5475 11.1851 16.0022 11.1851 14.0952C11.1851 12.1878 12.7316 10.6444 14.6374 10.6444C16.5459 10.6444 18.0909 12.1879 18.0909 14.0952C18.0909 16.0022 16.546 17.5475 14.6374 17.5475ZM40.7364 29.4436V40.1939H34.8343V30.6206C34.8343 28.3282 34.5861 25.3799 31.4444 25.3799C28.2549 25.3799 27.7728 27.8756 27.7728 30.4553V40.1939H22.0815V20.485H27.562V23.1199H27.6204C28.4379 21.6444 30.4405 20.4829 33.4225 20.4829C38.4469 20.4829 40.1543 22.8589 40.6215 26.576C40.7324 27.4484 40.7752 28.3897 40.7752 29.4436H40.7364Z" fill="#FF8400"/>
</g>
<defs>
<clipPath id="clip0_3_20">
<rect width="50.0377" height="50.0377" fill="white" transform="translate(0.962219 0.419739)"/>
</clipPath>
</defs>
</svg>
